<svg width="510" height="668" viewBox="0 0 510 668" fill="none" xmlns="http://www.w3.org/2000/svg">
<g clip-path="url(#clip0_3045_16118)">
<path d="M483.301 310.867C518.317 275.851 518.317 219.08 483.301 184.064C448.286 149.048 391.514 149.048 356.499 184.064L26.9746 513.588C-8.04102 548.604 -8.041 605.375 26.9746 640.391C61.9902 675.406 118.762 675.406 153.777 640.391L483.301 310.867Z" fill="#FC6575"/>
<path d="M199.191 26.7845C164.372 61.6032 164.532 118.215 199.547 153.231C234.563 188.246 291.175 188.406 325.993 153.587C360.812 118.769 360.652 62.1568 325.637 27.1412C290.621 -7.87442 234.009 -8.03411 199.191 26.7845Z" fill="#FC6575"/>
</g>
<defs>
<clipPath id="clip0_3045_16118">
<rect width="510" height="668" fill="white" transform="translate(0.000976562)"/>
</clipPath>
</defs>
</svg>
